<svg width="600" height="36" viewBox="0 0 600 36" fill="none" xmlns="http://www.w3.org/2000/svg">
<path d="M0.0455696 26.4911V25.3823C0.0455696 24.6025 0.435443 24.2127 1.21519 24.2127H5.90886C6.68861 24.2127 7.07848 24.6025 7.07848 25.3823V25.8228C7.07848 27.2203 7.3519 28.1772 7.89873 28.6937C8.4557 29.2101 9.47342 29.4684 10.9519 29.4684H13.5494C14.9873 29.4684 15.9899 29.1949 16.557 28.6481C17.1342 28.0911 17.4228 27.0582 17.4228 25.5494V24.881C17.4228 23.8177 16.9873 22.9975 16.1165 22.4203C15.2456 21.8532 14.1671 21.5139 12.881 21.4025C11.5949 21.2911 10.2025 21.0785 8.7038 20.7646C7.21519 20.4506 5.82278 20.0456 4.52658 19.5494C3.24051 19.0532 2.16202 18.0759 1.29114 16.6177C0.43038 15.1595 0 13.2861 0 10.9975V9.06836C0 6.19241 0.810126 3.95949 2.43038 2.36962C4.05063 0.789874 6.29873 0 9.17468 0H14.7038C17.6203 0 19.8886 0.789874 21.5089 2.36962C23.1291 3.95949 23.9392 6.19241 23.9392 9.06836V10.1165C23.9392 10.8962 23.5544 11.2861 22.7848 11.2861H18.0759C17.3063 11.2861 16.9215 10.8962 16.9215 10.1165V9.78228C16.9215 8.3443 16.643 7.36709 16.0861 6.85063C15.5392 6.33418 14.5266 6.07595 13.0481 6.07595H10.8911C9.38228 6.07595 8.35949 6.36456 7.82278 6.94177C7.28608 7.50886 7.01772 8.62278 7.01772 10.2835V11.3316C7.01772 13.0633 8.53164 14.0608 11.5595 14.324C14.6886 14.5772 17.4684 15.2051 19.8987 16.2076C21.1949 16.7544 22.2734 17.7367 23.1342 19.1544C24.0051 20.5722 24.4405 22.3899 24.4405 24.6076V26.4911C24.4405 29.3671 23.6304 31.5949 22.0101 33.1747C20.3797 34.7646 18.1316 35.5595 15.2658 35.5595H9.23544C6.35949 35.5595 4.11139 34.7646 2.49114 33.1747C0.86076 31.5949 0.0455696 29.3671 0.0455696 26.4911ZM49.8835 35.5595H45.1747C44.4051 35.5595 44.0203 35.1696 44.0203 34.3899V1.15443C44.0203 0.384811 44.4051 0 45.1747 0H58.6633C61.5392 0 63.7721 0.78481 65.362 2.35443C66.9418 3.91392 67.7316 6.13164 67.7316 9.00759V14.324C67.7316 17.2 66.9418 19.4177 65.362 20.9772C63.7721 22.5468 61.5392 23.3316 58.6633 23.3316H51.7063C51.2608 23.3316 51.038 23.5342 51.038 23.9392V34.3899C51.038 35.1696 50.6532 35.5595 49.8835 35.5595ZM51.6456 17.1949H57.5089C58.6835 17.1949 59.5139 16.9468 60 16.4506C60.4759 15.9544 60.7139 15.1342 60.7139 13.9899V9.34177C60.7139 8.16709 60.4759 7.32658 60 6.82025C59.5139 6.32405 58.6835 6.07595 57.5089 6.07595H51.6456C51.2405 6.07595 51.038 6.27848 51.038 6.68355V16.5873C51.038 16.9924 51.2405 17.1949 51.6456 17.1949ZM93.8886 1.15443V34.3899C93.8886 35.1696 93.5038 35.5595 92.7342 35.5595H88.0253C87.2557 35.5595 86.8709 35.1696 86.8709 34.3899V1.15443C86.8709 0.384811 87.2557 0 88.0253 0H92.7342C93.5038 0 93.8886 0.384811 93.8886 1.15443ZM120.38 35.5595H115.792C115.023 35.5595 114.638 35.1696 114.638 34.3899V1.15443C114.638 0.384811 115.023 0 115.792 0H119.939C120.719 0 121.235 0.258228 121.489 0.774684L132.653 21.7367H132.881V1.15443C132.881 0.384811 133.266 0 134.035 0H138.638C139.408 0 139.792 0.384811 139.792 1.15443V34.3899C139.792 35.1696 139.408 35.5595 138.638 35.5595H134.597C133.787 35.5595 133.195 35.1899 132.82 34.4506L121.762 13.8835H121.549V34.3899C121.549 35.1696 121.159 35.5595 120.38 35.5595ZM171.266 35.5595H166.618C165.808 35.5595 165.403 35.1696 165.403 34.3899V6.68355C165.403 6.27848 165.2 6.07595 164.795 6.07595H158.491C157.711 6.07595 157.322 5.69114 157.322 4.92152V1.15443C157.322 0.384811 157.711 0 158.491 0H179.392C180.162 0 180.547 0.384811 180.547 1.15443V4.92152C180.547 5.69114 180.162 6.07595 179.392 6.07595H173.089C172.643 6.07595 172.42 6.27848 172.42 6.68355V34.3899C172.42 35.1696 172.035 35.5595 171.266 35.5595ZM203.878 35.5595H199.185C198.415 35.5595 198.03 35.1696 198.03 34.3899V1.15443C198.03 0.384811 198.415 0 199.185 0H203.878C204.658 0 205.048 0.384811 205.048 1.15443V14.157C205.048 14.562 205.271 14.7646 205.716 14.7646H215.058C215.463 14.7646 215.666 14.562 215.666 14.157V1.15443C215.666 0.384811 216.051 0 216.82 0H221.529C222.299 0 222.684 0.384811 222.684 1.15443V34.3899C222.684 35.1696 222.299 35.5595 221.529 35.5595H216.82C216.051 35.5595 215.666 35.1696 215.666 34.3899V21.4481C215.666 21.043 215.463 20.8405 215.058 20.8405H205.716C205.271 20.8405 205.048 21.043 205.048 21.4481V34.3899C205.048 35.1696 204.658 35.5595 203.878 35.5595ZM262.39 35.5595H244.314C243.534 35.5595 243.144 35.1696 243.144 34.3899V1.15443C243.144 0.384811 243.534 0 244.314 0H262.39C263.129 0 263.499 0.384811 263.499 1.15443V4.92152C263.499 5.69114 263.129 6.07595 262.39 6.07595H250.83C250.395 6.07595 250.177 6.27848 250.177 6.68355V13.8835C250.177 14.2886 250.395 14.4911 250.83 14.4911H260.294C261.063 14.4911 261.448 14.876 261.448 15.6456V19.4127C261.448 20.1823 261.063 20.5671 260.294 20.5671H250.83C250.395 20.5671 250.177 20.7696 250.177 21.1747V28.8608C250.177 29.2658 250.395 29.4684 250.83 29.4684H262.39C263.129 29.4684 263.499 29.8582 263.499 30.638V34.3899C263.499 35.1696 263.129 35.5595 262.39 35.5595ZM290.537 29.6962H296.734C297.949 29.6962 298.825 29.4481 299.362 28.9519C299.899 28.4557 300.167 27.6354 300.167 26.4911V23.2861C300.167 22.1418 299.889 21.3266 299.332 20.8405C298.775 20.3646 297.873 20.1266 296.628 20.1266H290.537C290.132 20.1266 289.929 20.3291 289.929 20.7342V29.0886C289.929 29.4937 290.132 29.6962 290.537 29.6962ZM290.537 14.4304H296.187C297.362 14.4304 298.228 14.1823 298.785 13.6861C299.332 13.1899 299.605 12.3696 299.605 11.2253V9.06836C299.605 7.92405 299.337 7.1038 298.8 6.6076C298.273 6.11139 297.418 5.86329 296.233 5.86329H290.537C290.132 5.86329 289.929 6.06582 289.929 6.47089V13.8228C289.929 14.2278 290.132 14.4304 290.537 14.4304ZM282.911 34.3899V1.15443C282.911 0.384811 283.296 0 284.066 0H297.342C300.258 0 302.506 0.774683 304.086 2.32405C305.676 3.87342 306.471 6.08608 306.471 8.96203V11.2253C306.471 14.3544 305.013 16.3797 302.096 17.3013C303.575 17.5241 304.754 18.1266 305.635 19.1089C306.516 20.081 306.957 21.4734 306.957 23.2861V26.5975C306.957 29.4734 306.167 31.6861 304.587 33.2354C302.997 34.7848 300.765 35.5595 297.889 35.5595H284.066C283.296 35.5595 282.911 35.1696 282.911 34.3899ZM336.547 29.4684H340.481C341.656 29.4684 342.491 29.2203 342.987 28.7241C343.484 28.2278 343.732 27.3873 343.732 26.2025V9.34177C343.732 8.16709 343.484 7.32658 342.987 6.82025C342.491 6.32405 341.656 6.07595 340.481 6.07595H336.547C335.372 6.07595 334.542 6.32405 334.056 6.82025C333.58 7.32658 333.342 8.16709 333.342 9.34177V26.2025C333.342 27.3873 333.58 28.2278 334.056 28.7241C334.542 29.2203 335.372 29.4684 336.547 29.4684ZM341.635 35.5595H335.438C332.532 35.5595 330.284 34.7848 328.694 33.2354C327.114 31.6861 326.324 29.4532 326.324 26.5367V9.00759C326.324 6.10127 327.114 3.87342 328.694 2.32405C330.284 0.774683 332.532 0 335.438 0H341.635C344.552 0 346.8 0.774683 348.38 2.32405C349.97 3.87342 350.765 6.10127 350.765 9.00759V26.5367C350.765 29.4532 349.97 31.6861 348.38 33.2354C346.8 34.7848 344.552 35.5595 341.635 35.5595ZM381.676 35.5595H377.028C376.218 35.5595 375.813 35.1696 375.813 34.3899V6.68355C375.813 6.27848 375.61 6.07595 375.205 6.07595H368.901C368.122 6.07595 367.732 5.69114 367.732 4.92152V1.15443C367.732 0.384811 368.122 0 368.901 0H389.803C390.572 0 390.957 0.384811 390.957 1.15443V4.92152C390.957 5.69114 390.572 6.07595 389.803 6.07595H383.499C383.053 6.07595 382.83 6.27848 382.83 6.68355V34.3899C382.83 35.1696 382.446 35.5595 381.676 35.5595ZM419.438 35.5595H414.79C413.98 35.5595 413.575 35.1696 413.575 34.3899V6.68355C413.575 6.27848 413.372 6.07595 412.967 6.07595H406.663C405.894 6.07595 405.509 5.69114 405.509 4.92152V1.15443C405.509 0.384811 405.894 0 406.663 0H427.565C428.344 0 428.734 0.384811 428.734 1.15443V4.92152C428.734 5.69114 428.344 6.07595 427.565 6.07595H421.261C420.825 6.07595 420.608 6.27848 420.608 6.68355V34.3899C420.608 35.1696 420.218 35.5595 419.438 35.5595ZM465.57 35.5595H447.372C446.592 35.5595 446.203 35.1696 446.203 34.3899V1.15443C446.203 0.384811 446.592 0 447.372 0H452.066C452.846 0 453.235 0.384811 453.235 1.15443V28.8152C453.235 29.2203 453.453 29.4228 453.889 29.4228H465.57C466.299 29.4228 466.663 29.8279 466.663 30.638V34.3899C466.663 35.1696 466.299 35.5595 465.57 35.5595ZM503.559 35.5595H485.468C484.699 35.5595 484.314 35.1696 484.314 34.3899V1.15443C484.314 0.384811 484.699 0 485.468 0H503.559C504.289 0 504.653 0.384811 504.653 1.15443V4.92152C504.653 5.69114 504.289 6.07595 503.559 6.07595H492C491.554 6.07595 491.332 6.27848 491.332 6.68355V13.8835C491.332 14.2886 491.554 14.4911 492 14.4911H501.448C502.228 14.4911 502.618 14.876 502.618 15.6456V19.4127C502.618 20.1823 502.228 20.5671 501.448 20.5671H492C491.554 20.5671 491.332 20.7696 491.332 21.1747V28.8608C491.332 29.2658 491.554 29.4684 492 29.4684H503.559C504.289 29.4684 504.653 29.8582 504.653 30.638V34.3899C504.653 35.1696 504.289 35.5595 503.559 35.5595ZM529.656 27.5848V34.3899C529.656 35.1696 529.306 35.5595 528.608 35.5595H523.686C522.947 35.5595 522.577 35.1696 522.577 34.3899V27.6456C522.577 26.9063 522.947 26.5367 523.686 26.5367H528.608C529.306 26.5367 529.656 26.8861 529.656 27.5848ZM552.334 35.5595H547.018C546.359 35.5595 546.137 35.1696 546.349 34.3899L555.099 1.15443C555.352 0.384811 555.904 0 556.754 0H564.106C565.028 0 565.58 0.384811 565.762 1.15443L574.496 34.3899C574.719 35.1696 574.501 35.5595 573.843 35.5595H568.527C568.122 35.5595 567.848 35.4734 567.706 35.3013C567.554 35.1392 567.443 34.8354 567.372 34.3899L565.823 28.3139H555.038L553.489 34.3899C553.418 34.8354 553.296 35.1392 553.124 35.3013C552.962 35.4734 552.699 35.5595 552.334 35.5595ZM560.567 6.68355H560.339L556.359 22.6633H564.547L560.567 6.68355ZM600 1.15443V34.3899C600 35.1696 599.61 35.5595 598.83 35.5595H594.137C593.357 35.5595 592.967 35.1696 592.967 34.3899V1.15443C592.967 0.384811 593.357 0 594.137 0H598.83C599.61 0 600 0.384811 600 1.15443Z" fill="white"/>
</svg>
