<svg width="700" height="491" viewBox="0 0 700 491" fill="none" xmlns="http://www.w3.org/2000/svg">
<g clip-path="url(#clip0_131_56)">
<path d="M457.142 198.556V263.933L350 157.648L457.142 198.556Z" fill="#70EFFC"/>
<path d="M525 237.728V303.104L457.142 263.932V198.556L525 237.728Z" fill="#4EE1F9"/>
<path d="M525 303.104L467.184 336.484H467.175L350 404.141V325.79L399.326 297.312L457.142 263.932L525 303.104Z" fill="#05A7D3"/>
<path d="M350 325.79V404.141L242.858 263.932L350 325.79Z" fill="#057EC1"/>
<path d="M242.858 263.932L350 404.141L175 303.104L242.858 263.932Z" fill="#0462A3"/>
<path d="M525 101.037L457.142 140.208L350 0L525 101.037Z" fill="#2E97ED"/>
<path d="M350 0L457.142 140.208L350 78.3508V0Z" fill="#297ED3"/>
<path d="M350 0V78.3508L299.473 107.525L242.858 140.208L175 101.037L231.615 68.3536L350 0Z" fill="#0E52A5"/>
<path d="M242.858 140.208V206.977L175 167.798V101.037L242.858 140.208Z" fill="#033277"/>
<path d="M242.858 140.208L343.425 253.336L242.858 206.977V140.208Z" fill="#021A56"/>
</g>
<g clip-path="url(#clip1_131_56)">
<path d="M0.0531645 479.61V478.316C0.0531645 477.407 0.508017 476.952 1.41772 476.952H6.89367C7.80338 476.952 8.25823 477.407 8.25823 478.316V478.83C8.25823 480.461 8.57722 481.577 9.21519 482.18C9.86498 482.782 11.0523 483.083 12.7772 483.083H15.8076C17.4852 483.083 18.6549 482.764 19.3165 482.126C19.9899 481.477 20.3266 480.272 20.3266 478.511V477.731C20.3266 476.491 19.8186 475.534 18.8025 474.861C17.7865 474.199 16.5283 473.803 15.0278 473.673C13.5274 473.543 11.903 473.295 10.1544 472.929C8.41772 472.563 6.79325 472.09 5.28101 471.511C3.78059 470.932 2.52236 469.792 1.50633 468.091C0.50211 466.39 0 464.204 0 461.534V459.283C0 455.928 0.945147 453.323 2.83544 451.468C4.72574 449.625 7.34852 448.704 10.7038 448.704H17.1544C20.557 448.704 23.2034 449.625 25.0937 451.468C26.984 453.323 27.9291 455.928 27.9291 459.283V460.506C27.9291 461.416 27.4802 461.871 26.5823 461.871H21.0886C20.1907 461.871 19.7418 461.416 19.7418 460.506V460.116C19.7418 458.439 19.4169 457.299 18.7671 456.696C18.1291 456.093 16.9477 455.792 15.2228 455.792H12.7063C10.946 455.792 9.75274 456.129 9.12658 456.802C8.50042 457.464 8.18734 458.764 8.18734 460.701V461.924C8.18734 463.944 9.95359 465.108 13.4861 465.415C17.1367 465.71 20.3797 466.443 23.2152 467.612C24.7274 468.25 25.9857 469.396 26.9899 471.05C28.0059 472.704 28.5139 474.825 28.5139 477.412V479.61C28.5139 482.965 27.5688 485.564 25.6785 487.407C23.7764 489.262 21.1536 490.19 17.8101 490.19H10.7747C7.41941 490.19 4.79662 489.262 2.90633 487.407C1.00422 485.564 0.0531645 482.965 0.0531645 479.61ZM58.1975 490.19H52.7038C51.8059 490.19 51.357 489.735 51.357 488.825V450.05C51.357 449.153 51.8059 448.704 52.7038 448.704H68.4405C71.7958 448.704 74.4008 449.619 76.2557 451.45C78.0987 453.27 79.0203 455.857 79.0203 459.212V465.415C79.0203 468.77 78.0987 471.358 76.2557 473.177C74.4008 475.008 71.7958 475.924 68.4405 475.924H60.3241C59.8042 475.924 59.5443 476.16 59.5443 476.633V488.825C59.5443 489.735 59.0954 490.19 58.1975 490.19ZM60.2532 468.764H67.0937C68.4641 468.764 69.4329 468.475 70 467.896C70.5553 467.317 70.8329 466.36 70.8329 465.025V459.602C70.8329 458.232 70.5553 457.251 70 456.661C69.4329 456.082 68.4641 455.792 67.0937 455.792H60.2532C59.7806 455.792 59.5443 456.029 59.5443 456.501V468.056C59.5443 468.528 59.7806 468.764 60.2532 468.764ZM109.537 450.05V488.825C109.537 489.735 109.088 490.19 108.19 490.19H102.696C101.798 490.19 101.349 489.735 101.349 488.825V450.05C101.349 449.153 101.798 448.704 102.696 448.704H108.19C109.088 448.704 109.537 449.153 109.537 450.05ZM140.443 490.19H135.091C134.193 490.19 133.744 489.735 133.744 488.825V450.05C133.744 449.153 134.193 448.704 135.091 448.704H139.929C140.839 448.704 141.441 449.005 141.737 449.607L154.762 474.063H155.028V450.05C155.028 449.153 155.477 448.704 156.375 448.704H161.744C162.642 448.704 163.091 449.153 163.091 450.05V488.825C163.091 489.735 162.642 490.19 161.744 490.19H157.03C156.085 490.19 155.394 489.758 154.957 488.896L142.056 464.901H141.808V488.825C141.808 489.735 141.353 490.19 140.443 490.19ZM199.81 490.19H194.387C193.442 490.19 192.97 489.735 192.97 488.825V456.501C192.97 456.029 192.733 455.792 192.261 455.792H184.906C183.997 455.792 183.542 455.343 183.542 454.445V450.05C183.542 449.153 183.997 448.704 184.906 448.704H209.291C210.189 448.704 210.638 449.153 210.638 450.05V454.445C210.638 455.343 210.189 455.792 209.291 455.792H201.937C201.417 455.792 201.157 456.029 201.157 456.501V488.825C201.157 489.735 200.708 490.19 199.81 490.19ZM237.858 490.19H232.382C231.484 490.19 231.035 489.735 231.035 488.825V450.05C231.035 449.153 231.484 448.704 232.382 448.704H237.858C238.768 448.704 239.223 449.153 239.223 450.05V465.22C239.223 465.693 239.483 465.929 240.003 465.929H250.901C251.374 465.929 251.61 465.693 251.61 465.22V450.05C251.61 449.153 252.059 448.704 252.957 448.704H258.451C259.349 448.704 259.797 449.153 259.797 450.05V488.825C259.797 489.735 259.349 490.19 258.451 490.19H252.957C252.059 490.19 251.61 489.735 251.61 488.825V473.726C251.61 473.254 251.374 473.018 250.901 473.018H240.003C239.483 473.018 239.223 473.254 239.223 473.726V488.825C239.223 489.735 238.768 490.19 237.858 490.19ZM306.122 490.19H285.033C284.123 490.19 283.668 489.735 283.668 488.825V450.05C283.668 449.153 284.123 448.704 285.033 448.704H306.122C306.984 448.704 307.415 449.153 307.415 450.05V454.445C307.415 455.343 306.984 455.792 306.122 455.792H292.635C292.127 455.792 291.873 456.029 291.873 456.501V464.901C291.873 465.374 292.127 465.61 292.635 465.61H303.676C304.574 465.61 305.023 466.059 305.023 466.957V471.352C305.023 472.25 304.574 472.699 303.676 472.699H292.635C292.127 472.699 291.873 472.935 291.873 473.407V482.375C291.873 482.847 292.127 483.083 292.635 483.083H306.122C306.984 483.083 307.415 483.538 307.415 484.448V488.825C307.415 489.735 306.984 490.19 306.122 490.19ZM338.96 483.349H346.19C347.608 483.349 348.63 483.06 349.256 482.481C349.882 481.902 350.195 480.945 350.195 479.61V475.871C350.195 474.536 349.87 473.585 349.22 473.018C348.57 472.462 347.519 472.185 346.066 472.185H338.96C338.487 472.185 338.251 472.421 338.251 472.893V482.64C338.251 483.113 338.487 483.349 338.96 483.349ZM338.96 465.539H345.552C346.922 465.539 347.932 465.25 348.582 464.671C349.22 464.092 349.539 463.135 349.539 461.8V459.283C349.539 457.948 349.226 456.991 348.6 456.412C347.986 455.834 346.987 455.544 345.605 455.544H338.96C338.487 455.544 338.251 455.78 338.251 456.253V464.83C338.251 465.303 338.487 465.539 338.96 465.539ZM330.063 488.825V450.05C330.063 449.153 330.512 448.704 331.41 448.704H346.899C350.301 448.704 352.924 449.607 354.767 451.415C356.622 453.223 357.549 455.804 357.549 459.159V461.8C357.549 465.45 355.848 467.813 352.446 468.888C354.17 469.148 355.547 469.851 356.575 470.997C357.603 472.131 358.116 473.756 358.116 475.871V479.734C358.116 483.089 357.195 485.671 355.352 487.478C353.497 489.286 350.892 490.19 347.537 490.19H331.41C330.512 490.19 330.063 489.735 330.063 488.825ZM392.638 483.083H397.228C398.598 483.083 399.573 482.794 400.152 482.215C400.731 481.636 401.02 480.656 401.02 479.273V459.602C401.02 458.232 400.731 457.251 400.152 456.661C399.573 456.082 398.598 455.792 397.228 455.792H392.638C391.268 455.792 390.299 456.082 389.732 456.661C389.176 457.251 388.899 458.232 388.899 459.602V479.273C388.899 480.656 389.176 481.636 389.732 482.215C390.299 482.794 391.268 483.083 392.638 483.083ZM398.575 490.19H391.344C387.954 490.19 385.331 489.286 383.476 487.478C381.633 485.671 380.711 483.066 380.711 479.663V459.212C380.711 455.822 381.633 453.223 383.476 451.415C385.331 449.607 387.954 448.704 391.344 448.704H398.575C401.977 448.704 404.6 449.607 406.443 451.415C408.298 453.223 409.225 455.822 409.225 459.212V479.663C409.225 483.066 408.298 485.671 406.443 487.478C404.6 489.286 401.977 490.19 398.575 490.19ZM445.289 490.19H439.866C438.921 490.19 438.448 489.735 438.448 488.825V456.501C438.448 456.029 438.212 455.792 437.739 455.792H430.385C429.475 455.792 429.02 455.343 429.02 454.445V450.05C429.02 449.153 429.475 448.704 430.385 448.704H454.77C455.668 448.704 456.116 449.153 456.116 450.05V454.445C456.116 455.343 455.668 455.792 454.77 455.792H447.415C446.895 455.792 446.635 456.029 446.635 456.501V488.825C446.635 489.735 446.187 490.19 445.289 490.19ZM489.344 490.19H483.922C482.976 490.19 482.504 489.735 482.504 488.825V456.501C482.504 456.029 482.268 455.792 481.795 455.792H474.441C473.543 455.792 473.094 455.343 473.094 454.445V450.05C473.094 449.153 473.543 448.704 474.441 448.704H498.825C499.735 448.704 500.19 449.153 500.19 450.05V454.445C500.19 455.343 499.735 455.792 498.825 455.792H491.471C490.963 455.792 490.709 456.029 490.709 456.501V488.825C490.709 489.735 490.254 490.19 489.344 490.19ZM543.165 490.19H521.934C521.024 490.19 520.57 489.735 520.57 488.825V450.05C520.57 449.153 521.024 448.704 521.934 448.704H527.41C528.32 448.704 528.775 449.153 528.775 450.05V482.321C528.775 482.794 529.029 483.03 529.537 483.03H543.165C544.015 483.03 544.441 483.503 544.441 484.448V488.825C544.441 489.735 544.015 490.19 543.165 490.19ZM587.486 490.19H566.38C565.482 490.19 565.033 489.735 565.033 488.825V450.05C565.033 449.153 565.482 448.704 566.38 448.704H587.486C588.337 448.704 588.762 449.153 588.762 450.05V454.445C588.762 455.343 588.337 455.792 587.486 455.792H574C573.48 455.792 573.22 456.029 573.22 456.501V464.901C573.22 465.374 573.48 465.61 574 465.61H585.023C585.932 465.61 586.387 466.059 586.387 466.957V471.352C586.387 472.25 585.932 472.699 585.023 472.699H574C573.48 472.699 573.22 472.935 573.22 473.407V482.375C573.22 482.847 573.48 483.083 574 483.083H587.486C588.337 483.083 588.762 483.538 588.762 484.448V488.825C588.762 489.735 588.337 490.19 587.486 490.19ZM617.932 480.886V488.825C617.932 489.735 617.524 490.19 616.709 490.19H610.967C610.105 490.19 609.673 489.735 609.673 488.825V480.957C609.673 480.094 610.105 479.663 610.967 479.663H616.709C617.524 479.663 617.932 480.071 617.932 480.886ZM644.39 490.19H638.187C637.419 490.19 637.159 489.735 637.408 488.825L647.615 450.05C647.911 449.153 648.554 448.704 649.547 448.704H658.124C659.199 448.704 659.843 449.153 660.056 450.05L670.246 488.825C670.505 489.735 670.251 490.19 669.484 490.19H663.281C662.808 490.19 662.489 490.089 662.324 489.888C662.147 489.699 662.017 489.345 661.934 488.825L660.127 481.737H647.544L645.737 488.825C645.654 489.345 645.512 489.699 645.311 489.888C645.122 490.089 644.815 490.19 644.39 490.19ZM653.995 456.501H653.729L649.086 475.144H658.638L653.995 456.501ZM700 450.05V488.825C700 489.735 699.545 490.19 698.635 490.19H693.16C692.25 490.19 691.795 489.735 691.795 488.825V450.05C691.795 449.153 692.25 448.704 693.16 448.704H698.635C699.545 448.704 700 449.153 700 450.05Z" fill="white"/>
</g>
<defs>
<clipPath id="clip0_131_56">
<rect width="350" height="404.141" fill="white" transform="translate(175)"/>
</clipPath>
<clipPath id="clip1_131_56">
<rect width="700" height="41.4861" fill="white" transform="translate(0 448.704)"/>
</clipPath>
</defs>
</svg>
