<svg width="350" height="405" viewBox="0 0 350 405" fill="none" xmlns="http://www.w3.org/2000/svg">
<g clip-path="url(#clip0_131_57)">
<path d="M282.142 198.556V263.933L175 157.648L282.142 198.556Z" fill="#70EFFC"/>
<path d="M350 237.728V303.104L282.142 263.932V198.556L350 237.728Z" fill="#4EE1F9"/>
<path d="M350 303.104L292.184 336.484H292.175L175 404.141V325.79L224.326 297.312L282.142 263.932L350 303.104Z" fill="#05A7D3"/>
<path d="M175 325.79V404.141L67.8577 263.932L175 325.79Z" fill="#057EC1"/>
<path d="M67.8577 263.932L175 404.141L0 303.104L67.8577 263.932Z" fill="#0462A3"/>
<path d="M350 101.037L282.142 140.208L175 0L350 101.037Z" fill="#2E97ED"/>
<path d="M175 0L282.142 140.208L175 78.3508V0Z" fill="#297ED3"/>
<path d="M175 0V78.3508L124.473 107.525L67.8577 140.208L0 101.037L56.6149 68.3536L175 0Z" fill="#0E52A5"/>
<path d="M67.8577 140.208V206.977L0 167.798V101.037L67.8577 140.208Z" fill="#033277"/>
<path d="M67.8577 140.208L168.425 253.336L67.8577 206.977V140.208Z" fill="#021A56"/>
</g>
<defs>
<clipPath id="clip0_131_57">
<rect width="350" height="404.141" fill="white"/>
</clipPath>
</defs>
</svg>
